<svg width="81" height="61" viewBox="0 0 81 61" fill="none" xmlns="http://www.w3.org/2000/svg">
<path d="M0 1.58416C0 1.26154 0.261537 1 0.584158 1C32.8463 1 59 27.1537 59 59.4158C59 59.7385 58.7385 60 58.4158 60H5C2.23858 60 0 57.7614 0 55V1.58416Z" fill="#C4E1F0"/>
<path d="M78.3639 33.8446C77.0389 32.4919 75.253 31.7589 73.3512 31.7589H69.3763C68.8523 32.2577 68.273 32.7035 67.6584 33.1116L61.5172 37.152H67.2503C71.1874 37.152 74.389 40.3536 74.389 44.3033V59.6815C74.389 59.9057 74.3764 60.1147 74.3361 60.3238H75.8198C78.4319 60.3238 80.2556 58.2255 80.2556 55.2204V38.8044C80.2556 36.8371 79.5856 35.0638 78.3664 33.8446H78.3639ZM38.9196 31.7589H34.9296C33.0404 31.7589 31.2545 32.4945 29.9169 33.8446C28.6977 35.0638 28 36.8749 28 38.8044V55.2204C28 58.2255 29.8363 60.3238 32.4611 60.3238H33.917C33.8767 60.1147 33.8641 59.9031 33.8641 59.6815V44.3033C33.8641 40.3536 37.0657 37.152 41.0028 37.152H46.7763L40.635 33.1116C40.0179 32.706 39.4411 32.2577 38.9171 31.7589H38.9196Z" fill="#0C4A6E"/>
<path d="M67.2453 41.0842H41.0028C39.2446 41.0842 37.8012 42.5276 37.8012 44.2984V59.6766C37.8012 60.0318 38.0909 60.3189 38.4436 60.3189H69.8045C70.1597 60.3189 70.4468 60.0292 70.4468 59.6766V44.2984C70.4468 42.5276 69.0161 41.0842 67.2453 41.0842ZM64.6734 56.6992H43.5747C42.5772 56.6992 41.7635 55.8856 41.7635 54.8881C41.7635 53.8906 42.5772 53.0769 43.5747 53.0769H64.6734C65.6709 53.0769 66.4845 53.8906 66.4845 54.8881C66.4845 55.8856 65.6709 56.6992 64.6734 56.6992Z" fill="#179DD2"/>
<path d="M45.1767 14.1137C43.7006 14.3958 41.7207 14.756 39.9751 15.1414C42.7107 7.43594 48.6579 0 54.1291 0C59.6002 0 65.6885 7.5896 68.3586 15.3858C66.2402 14.8215 63.7212 14.2548 62.1419 13.9726V13.96H62.1041C59.4592 13.421 56.7866 13.1514 54.1039 13.1514C51.4212 13.1514 48.6957 13.421 46.0004 13.96C46.0004 13.96 46.0004 13.9726 45.9878 13.9726L45.1792 14.1137H45.1767Z" fill="#0C4A6E"/>
<path d="M65.5349 29.8849V29.8975L54.4893 37.1672C54.3734 37.2302 54.2575 37.2705 54.1291 37.2705C54.0132 37.2705 53.8847 37.2327 53.7815 37.1672L42.7485 29.8975C39.834 27.9705 38.2269 24.6959 38.5368 21.3557C38.5997 20.6353 38.7156 19.9048 38.8718 19.1592C40.4512 18.6831 42.9298 18.2096 44.9072 17.8494C46.1793 23.2827 49.8267 29.6532 54.0636 29.6532C58.3004 29.6532 61.9353 23.2953 63.22 17.8771C65.2754 18.3128 67.8573 18.9552 69.4115 19.4565C69.4241 19.4565 69.4367 19.469 69.4493 19.469C69.5652 20.1114 69.6559 20.7411 69.7189 21.3582C70.0539 24.6984 68.4468 27.973 65.5324 29.8849H65.5349Z" fill="#0C4A6E"/>
</svg>
