<svg width="82" height="60" viewBox="0 0 82 60" fill="none" xmlns="http://www.w3.org/2000/svg">
<path d="M0 0.584158C0 0.261536 0.261537 0 0.584158 0C32.8463 0 59 26.1537 59 58.4158C59 58.7385 58.7385 59 58.4158 59H5C2.23858 59 0 56.7614 0 54V0.584158Z" fill="#C4E1F0"/>
<path d="M76.7959 7.4126H34.9759C32.1331 7.4126 29.8116 9.73644 29.8116 12.6039V26.7541C30.7525 26.774 31.6517 26.9214 32.4872 27.1942V20.4755H79.3244V45.1518C79.3244 46.5118 78.1944 47.6429 76.7939 47.6429H42.6269C43.0865 48.4792 43.4426 49.3594 43.6932 50.3212H76.7939C79.6586 50.3212 82 47.9973 82 45.1518V12.6039C82 9.73644 79.6586 7.4126 76.7939 7.4126H76.7959ZM36.5236 15.5769H36.1059C35.2067 15.5769 34.4965 14.8442 34.4965 13.9441C34.4965 13.044 35.2067 12.3331 36.1059 12.3331H36.5236C37.4029 12.3331 38.1549 13.044 38.1549 13.9441C38.1549 14.8442 37.4029 15.5769 36.5236 15.5769ZM42.1057 15.5769H41.688C40.7888 15.5769 40.0567 14.8442 40.0567 13.9441C40.0567 13.044 40.7888 12.3331 41.688 12.3331H42.1057C42.983 12.3331 43.737 13.044 43.737 13.9441C43.737 14.8442 42.985 15.5769 42.1057 15.5769ZM47.6679 15.5769H47.2701C46.3709 15.5769 45.6388 14.8442 45.6388 13.9441C45.6388 13.044 46.3709 12.3331 47.2701 12.3331H47.6679C48.5671 12.3331 49.2992 13.044 49.2992 13.9441C49.2992 14.8442 48.5671 15.5769 47.6679 15.5769ZM75.5625 15.3878H65.7551C64.9613 15.3878 64.3128 14.7605 64.3128 13.9441C64.3128 13.1276 64.9613 12.5004 65.7551 12.5004H75.5625C76.3563 12.5004 77.0048 13.1496 77.0048 13.9441C77.0048 14.7386 76.3563 15.3878 75.5625 15.3878Z" fill="#203A72"/>
<path d="M40.0686 59.095H18.9019C17.7621 59.095 16.8768 58.0973 17.0141 56.9643L17.5989 52.0737C17.9968 48.784 20.1572 46.0938 23.0656 44.9149C24.8222 46.3407 27.0543 47.195 29.4813 47.195C31.9083 47.195 34.1463 46.3407 35.9029 44.9149C38.8173 46.0938 40.9777 48.784 41.3696 52.0737L41.9585 56.9623C42.0958 58.0954 41.2105 59.095 40.0706 59.095H40.0686Z" fill="#203A72"/>
<path d="M29.4834 29.3569C25.2819 29.3569 21.8761 32.766 21.8761 36.9717C21.8761 41.1773 25.2819 44.5884 29.4834 44.5884C33.6848 44.5884 37.0926 41.1773 37.0926 36.9717C37.0926 32.766 33.6868 29.3569 29.4834 29.3569Z" fill="#203A72"/>
<path d="M47.837 41.1014C47.3953 41.1014 46.9856 40.9281 46.6792 40.6155L41.3875 35.1932C40.7669 34.558 40.7669 33.5623 41.3875 32.9291L46.6792 27.5068C46.9856 27.1921 47.3973 27.0209 47.837 27.0209C48.2766 27.0209 48.6646 27.1842 48.9689 27.4809C49.2773 27.7836 49.4504 28.1878 49.4563 28.6199C49.4603 29.052 49.2972 29.4622 48.9948 29.7709L44.8072 34.0601L48.9948 38.3494C49.6175 38.9886 49.6055 40.0161 48.9689 40.6394C48.6666 40.9361 48.2647 41.0994 47.837 41.0994V41.1014Z" fill="#14A0DE"/>
<path d="M63.9726 41.1014C63.5449 41.1014 63.1431 40.9381 62.8407 40.6414C62.2021 40.0182 62.1921 38.9906 62.8148 38.3494L67.0024 34.0602L62.8148 29.7709C62.5124 29.4603 62.3493 29.052 62.3533 28.6179C62.3593 28.1858 62.5304 27.7816 62.8407 27.4789C63.1451 27.1822 63.5469 27.0189 63.9706 27.0189C64.3944 27.0189 64.8221 27.1922 65.1284 27.5068L70.4221 32.9271C71.0308 33.5504 71.0308 34.568 70.4221 35.1912L65.1284 40.6135C64.8221 40.9262 64.4103 41.0994 63.9706 41.0994L63.9726 41.1014Z" fill="#14A0DE"/>
<path d="M53.8548 43.3117C53.7135 43.3117 53.5723 43.2938 53.433 43.256C52.5737 43.025 52.0604 42.1349 52.2912 41.2727L56.3912 26.0093C56.5802 25.3024 57.2227 24.8105 57.9508 24.8105C58.0921 24.8105 58.2353 24.8305 58.3746 24.8663C59.234 25.0973 59.7472 25.9874 59.5165 26.8516L55.4164 42.111C55.2274 42.8179 54.5849 43.3117 53.8548 43.3117Z" fill="#14A0DE"/>
</svg>
