<svg width="90" height="65" viewBox="0 0 90 65" fill="none" xmlns="http://www.w3.org/2000/svg">
<path d="M0 1.58416C0 1.26154 0.261537 1 0.584158 1C32.8463 1 59 27.1537 59 59.4158C59 59.7385 58.7385 60 58.4158 60H5C2.23858 60 0 57.7614 0 55V1.58416Z" fill="#C4E1F0"/>
<path d="M42.9199 13.4454H61.6251C62.8444 13.4454 63.8341 12.4557 63.8341 11.2364V6.826C63.8341 5.6067 62.8444 4.61698 61.6251 4.61698H58.1534C57.4927 1.97433 55.118 0 52.2712 0C49.4245 0 47.0497 1.97178 46.3916 4.61698H42.9199C41.7006 4.61698 40.7109 5.6067 40.7109 6.826V11.2364C40.7109 12.4557 41.7006 13.4454 42.9199 13.4454ZM52.2738 3.5788C53.6538 3.5788 54.7735 4.69861 54.7735 6.0786C54.7735 7.4586 53.6538 8.57841 52.2738 8.57841C50.8938 8.57841 49.774 7.4586 49.774 6.0786C49.774 4.69861 50.8938 3.5788 52.2738 3.5788Z" fill="#203A72"/>
<path d="M67.1349 53.9856C66.964 52.3761 67.196 50.1186 68.9459 47.7973C67.3057 47.101 66.3619 45.4302 66.0074 44.7032C65.1401 42.91 64.987 41.0377 65.5737 39.3822C66.2242 37.6961 67.6782 36.6911 69.0862 35.7166C70.1218 35.005 71.2825 34.1862 71.6855 33.3648C72.4278 31.819 73.4787 30.7349 74.5628 30.0232V13.0552C74.5628 10.3334 72.336 8.10657 69.6143 8.10657H66.9384V11.2313C66.9384 14.1546 64.556 16.537 61.6327 16.537H42.9326C40.0094 16.537 37.6269 14.1546 37.6269 11.2313V8.10657H34.9511C32.2141 8.10657 30 10.3334 30 13.0552V55.5008C30 58.2378 32.2115 60.452 34.9511 60.452H64.2626C64.6172 58.4572 65.839 56.7558 67.5098 55.7176C67.3236 55.1769 67.2012 54.5876 67.1374 53.9856H67.1349ZM39.5579 25.5873C38.9534 24.9828 38.9534 24.0033 39.5579 23.4013C40.1625 22.7967 41.142 22.7967 41.744 23.4013L43.6341 25.2914L45.5243 23.4013C46.1288 22.7967 47.1083 22.7967 47.7103 23.4013C48.3149 24.0058 48.3149 24.9853 47.7103 25.5873L45.8202 27.4775L47.7103 29.3677C48.3149 29.9722 48.3149 30.9517 47.7103 31.5537C47.4093 31.8547 47.0114 32.0078 46.616 32.0078C46.2206 32.0078 45.8253 31.8573 45.5218 31.5537L43.6316 29.6636L41.7414 31.5537C41.4404 31.8547 41.0425 32.0078 40.6471 32.0078C40.2517 32.0078 39.8564 31.8573 39.5528 31.5537C38.9483 30.9492 38.9483 29.9697 39.5528 29.3677L41.4429 27.4775L39.5528 25.5873H39.5579ZM59.8523 51.2256C60.4568 51.8302 60.4568 52.8097 59.8523 53.4117C59.5513 53.7127 59.1533 53.8657 58.7579 53.8657C58.3626 53.8657 57.9672 53.7152 57.6636 53.4117L55.7735 51.5215L53.8833 53.4117C53.5823 53.7127 53.1844 53.8657 52.7891 53.8657C52.3937 53.8657 51.9983 53.7152 51.6947 53.4117C51.0902 52.8071 51.0902 51.8276 51.6947 51.2256L53.5849 49.3355L51.6947 47.4453C51.0902 46.8408 51.0902 45.8613 51.6947 45.2593C52.2993 44.6547 53.2788 44.6547 53.8807 45.2593L55.7709 47.1494L57.6611 45.2593C58.2656 44.6547 59.2452 44.6547 59.8472 45.2593C60.4517 45.8638 60.4517 46.8433 59.8472 47.4453L57.957 49.3355L59.8472 51.2256H59.8523ZM63.8978 30.6176C63.5024 30.6176 63.1071 30.4671 62.8036 30.1635L60.8675 28.2274V32.9643C60.8675 36.3391 58.5794 39.2648 55.3041 40.0786L45.7896 42.4406C43.8968 42.91 42.573 44.6012 42.573 46.5525V52.3174C42.573 53.1719 41.8792 53.8632 41.0272 53.8632C40.1752 53.8632 39.4814 53.1694 39.4814 52.3174V46.5525C39.4814 43.1778 41.7695 40.252 45.0447 39.4383L54.5593 37.0762C56.452 36.6069 57.7759 34.9157 57.7759 32.9643V28.2274L55.8398 30.1635C55.2353 30.7681 54.2557 30.7681 53.6538 30.1635C53.0492 29.559 53.0492 28.5795 53.6538 27.9775L58.2299 23.4013C58.8345 22.7967 59.814 22.7967 60.416 23.4013L64.9921 27.9775C65.5967 28.582 65.5967 29.5615 64.9921 30.1635C64.6911 30.4645 64.2932 30.6176 63.8978 30.6176Z" fill="#203A72"/>
<path d="M85.8272 57.748H84.2024C87.8654 56.1562 87.2914 52.7458 85.891 49.2741C84.5212 45.8356 88.3755 44.5934 88.725 38.3821C89.2658 29.1762 80.6032 28.5079 78.2462 28.4773C77.9273 28.4773 77.736 28.763 77.7998 29.0818L78.5319 31.7245C78.5319 31.7245 75.8561 31.852 74.4557 34.7192C73.0859 37.5531 69.1373 38.7316 68.4689 40.484C67.8312 42.2364 69.2648 44.6571 70.2213 44.976C71.6549 45.4224 75.573 42.7466 76.6239 42.3002C77.6748 41.8538 78.0727 43.2899 72.5145 48.4451C67.8133 52.807 71.4942 57.1409 72.5145 57.7454H71.2391C69.0097 57.7454 67.2267 59.5284 67.2267 61.7272V63.8291C67.2267 64.2117 67.5455 64.4974 67.895 64.4974H89.1408C89.5234 64.4974 89.8091 64.2117 89.8091 63.8291V61.7272C89.8091 59.5284 88.026 57.7454 85.8272 57.7454V57.748ZM78.2462 37.1424C77.4503 37.1424 76.782 36.5047 76.782 35.6783C76.782 34.8518 77.4503 34.2141 78.2462 34.2141C79.0421 34.2141 79.7436 34.8824 79.7436 35.6783C79.7436 36.4741 79.0752 37.1424 78.2462 37.1424Z" fill="#14A0DE"/>
</svg>
