<svg width="76" height="66" viewBox="0 0 76 66" fill="none" xmlns="http://www.w3.org/2000/svg">
<path d="M0 7.58416C0 7.26154 0.261537 7 0.584158 7C32.8463 7 59 33.1537 59 65.4158C59 65.7385 58.7385 66 58.4158 66H5C2.23858 66 0 63.7614 0 61V7.58416Z" fill="#C4E1F0"/>
<path d="M42.6743 9.37965V15.874C42.6743 16.4668 43.1552 16.9477 43.748 16.9477C44.3407 16.9477 44.8216 16.4668 44.8216 15.874V9.37965C46.9261 8.88924 48.5044 7.00855 48.5044 4.75648C48.5044 2.13303 46.3714 0 43.748 0C41.1245 0 38.9915 2.13303 38.9915 4.75648C38.9915 7.00855 40.5698 8.88924 42.6743 9.37965Z" fill="#203A72"/>
<path d="M28.6881 15.167C29.1452 14.4361 29.419 13.5839 29.419 12.6602C29.419 10.0367 27.2859 7.90369 24.6625 7.90369C22.039 7.90369 19.906 10.0367 19.906 12.6602C19.906 15.2836 22.039 17.4167 24.6625 17.4167C25.5838 17.4167 26.4384 17.1405 27.1693 16.6858L31.7639 21.2804C31.9734 21.4899 32.2495 21.5946 32.5233 21.5946C32.7971 21.5946 33.0732 21.4899 33.2827 21.2804C33.7017 20.8614 33.7017 20.1806 33.2827 19.7616L28.6881 15.167Z" fill="#203A72"/>
<path d="M21.3796 32.8217H27.874C28.4668 32.8217 28.9476 32.3408 28.9476 31.748C28.9476 31.1552 28.4668 30.6743 27.874 30.6743H21.3796C20.8892 28.5699 19.0086 26.9915 16.7565 26.9915C14.133 26.9915 12 29.1246 12 31.748C12 34.3714 14.133 36.5045 16.7565 36.5045C19.0086 36.5045 20.8892 34.9261 21.3796 32.8217Z" fill="#203A72"/>
<path d="M70.7395 26.9915C68.4874 26.9915 66.6067 28.5699 66.1163 30.6743H59.622C59.0292 30.6743 58.5483 31.1552 58.5483 31.748C58.5483 32.3408 59.0292 32.8217 59.622 32.8217H66.1163C66.6067 34.9261 68.4874 36.5045 70.7395 36.5045C73.363 36.5045 75.496 34.3714 75.496 31.748C75.496 29.1246 73.363 26.9915 70.7395 26.9915Z" fill="#203A72"/>
<path d="M54.975 21.597C55.2512 21.597 55.5249 21.4922 55.7344 21.2827L60.329 16.6881C61.0599 17.1452 61.9122 17.419 62.8358 17.419C65.4593 17.419 67.5923 15.2859 67.5923 12.6625C67.5923 10.0391 65.4593 7.90601 62.8358 7.90601C60.2124 7.90601 58.0794 10.0391 58.0794 12.6625C58.0794 13.5838 58.3555 14.4384 58.8102 15.1693L54.2155 19.7639C53.7966 20.1829 53.7966 20.8637 54.2155 21.2827C54.425 21.4922 54.7012 21.597 54.975 21.597Z" fill="#203A72"/>
<path d="M65.0569 39.9183C64.8117 39.5327 64.4261 39.2779 63.9737 39.2041C63.3691 39.097 62.7668 39.347 62.4026 39.8517L59.3482 44.1178C59.4196 44.2035 59.4839 44.2915 59.5434 44.3772C60.3647 45.5771 60.2695 47.184 59.3149 48.2815L59.0982 48.529C57.8579 49.9503 56.4891 51.2739 55.0322 52.4595L53.8395 53.4308C53.4467 53.7474 52.8705 53.6879 52.5515 53.2974C52.2325 52.9046 52.2944 52.3261 52.6848 52.0095L53.8799 51.0382C55.2559 49.9193 56.5486 48.6695 57.7199 47.3268L57.9341 47.0793C58.3436 46.6103 58.384 45.9246 58.0341 45.4081C57.8246 45.1033 57.5104 44.8986 57.1485 44.8343C56.7843 44.7701 56.42 44.851 56.1177 45.0605L49.4996 49.6979C48.7759 50.205 48.2331 50.9502 47.9712 51.7953L45.543 59.6561H54.1608L59.9577 56.1042C60.967 55.4876 61.6884 54.5187 61.9955 53.3784L65.2569 41.1991C65.376 40.7563 65.3045 40.3016 65.0569 39.916V39.9183Z" fill="#203A72"/>
<path d="M39.5247 51.7952C39.2629 50.9501 38.7225 50.205 37.9964 49.6979L31.3806 45.0604C31.0807 44.8509 30.7164 44.77 30.3474 44.8343C29.9856 44.901 29.6713 45.1057 29.4642 45.408C29.1143 45.9222 29.1548 46.6079 29.5642 47.0792L29.7785 47.3268C30.9426 48.6647 32.2353 49.9122 33.6184 51.0382L34.8111 52.0095C35.0015 52.1642 35.1206 52.3832 35.1444 52.6261C35.1706 52.8689 35.0991 53.107 34.9444 53.2974C34.7897 53.4879 34.5707 53.6045 34.3255 53.6307C34.085 53.6569 33.8446 53.5831 33.6565 53.4283L32.4638 52.457C30.9997 51.2691 29.6332 49.9455 28.3977 48.5266L28.1835 48.2791C27.2264 47.1816 27.1336 45.577 27.9525 44.3748C28.0168 44.282 28.0811 44.1963 28.1501 44.1153L25.0958 39.8493C24.7435 39.3589 24.1173 39.0994 23.5246 39.2017C23.0722 39.2779 22.6889 39.5303 22.4414 39.9159C22.1938 40.3016 22.1224 40.7563 22.2414 41.1991L25.5029 53.3783C25.8076 54.521 26.5337 55.49 27.5407 56.1042L33.3399 59.656H41.9553L39.5271 51.7929L39.5247 51.7952Z" fill="#203A72"/>
<path d="M45.205 65.172C45.205 65.5886 45.5454 65.929 45.962 65.929H52.8491C53.2657 65.929 53.6062 65.5886 53.6062 65.172V61.4534H45.2026V65.172H45.205Z" fill="#203A72"/>
<path d="M33.8898 65.172C33.8898 65.5886 34.2302 65.929 34.6492 65.929H41.5364C41.9554 65.929 42.2958 65.5886 42.2958 65.172V61.4534H33.8922V65.172H33.8898Z" fill="#203A72"/>
<path d="M44.2932 21.716C44.1217 21.6375 43.9384 21.597 43.748 21.597C43.5575 21.597 43.3742 21.6375 43.2028 21.716L34.8802 25.5203L43.748 29.5745L52.6158 25.5203L44.2932 21.716Z" fill="#14A0DE"/>
<path d="M33.3351 39.0494C33.3351 39.5612 33.6351 40.0302 34.1017 40.2421L42.4149 44.0415V31.8956L33.3351 27.7438V39.0494Z" fill="#14A0DE"/>
<path d="M45.0812 31.8956V44.0439L53.3967 40.242C53.8609 40.0302 54.1632 39.5612 54.1632 39.0494V27.7438L45.0836 31.8956H45.0812Z" fill="#14A0DE"/>
</svg>
