<svg width="81" height="61" viewBox="0 0 81 61" fill="none" xmlns="http://www.w3.org/2000/svg">
<path d="M0 0.584158C0 0.261536 0.261537 0 0.584158 0C32.8463 0 59 26.1537 59 58.4158C59 58.7385 58.7385 59 58.4158 59H5C2.23858 59 0 56.7614 0 54V0.584158Z" fill="#C4E1F0"/>
<path d="M78.1099 27.5533C79.2333 27.5533 80.1432 26.644 80.1432 25.5213C80.1432 24.3986 79.2333 23.4893 78.1099 23.4893H71.231V18.4917H78.1099C79.2333 18.4917 80.1432 17.5824 80.1432 16.4597C80.1432 15.337 79.2333 14.4277 78.1099 14.4277H71.231V14.3234C71.231 11.3433 68.8046 8.9185 65.8201 8.9185H65.7061V2.032C65.7061 0.909308 64.7962 0 63.6728 0C62.5494 0 61.6395 0.909308 61.6395 2.032V8.9185H56.6386V2.032C56.6386 0.909308 55.7263 0 54.6053 0C53.4843 0 52.572 0.909308 52.572 2.032V8.9185H47.5712V2.032C47.5712 0.909308 46.6589 0 45.5379 0C44.4169 0 43.5045 0.909308 43.5045 2.032V8.9185H38.5037V2.032C38.5037 0.909308 37.5914 0 36.4704 0C35.3494 0 34.4371 0.909308 34.4371 2.032V8.9185H34.3327C31.3483 8.9185 28.9219 11.3433 28.9219 14.3234V14.4277H22.0333C20.9099 14.4277 20 15.337 20 16.4597C20 17.5824 20.9099 18.4917 22.0333 18.4917H28.9219V23.4893H22.0333C20.9099 23.4893 20 24.3986 20 25.5213C20 26.644 20.9099 27.5533 22.0333 27.5533H28.9219V32.5508H22.0333C20.9099 32.5508 20 33.4601 20 34.5828C20 35.7055 20.9099 36.6148 22.0333 36.6148H28.9219V41.6124H22.0333C20.9099 41.6124 20 42.5217 20 43.6444C20 44.7671 20.9099 45.6764 22.0333 45.6764H28.9219V45.7928C28.9219 48.7729 31.3483 51.1977 34.3327 51.1977H34.4371V58.0721C34.4371 59.1948 35.347 60.1041 36.4704 60.1041C37.5938 60.1041 38.5037 59.1948 38.5037 58.0721V51.1977H43.5045V58.0721C43.5045 59.1948 44.4144 60.1041 45.5379 60.1041C46.6613 60.1041 47.5712 59.1948 47.5712 58.0721V51.1977H52.572V58.0721C52.572 59.1948 53.4843 60.1041 54.6053 60.1041C55.7263 60.1041 56.6386 59.1948 56.6386 58.0721V51.1977H61.6395V58.0721C61.6395 59.1948 62.5494 60.1041 63.6728 60.1041C64.7962 60.1041 65.7061 59.1948 65.7061 58.0721V51.1977H65.8201C68.8046 51.1977 71.231 48.7729 71.231 45.7928V45.6764H78.1099C79.2333 45.6764 80.1432 44.7671 80.1432 43.6444C80.1432 42.5217 79.2333 41.6124 78.1099 41.6124H71.231V36.6148H78.1099C79.2333 36.6148 80.1432 35.7055 80.1432 34.5828C80.1432 33.4601 79.2333 32.5508 78.1099 32.5508H71.231V27.5533H78.1099ZM65.8201 43.1376C65.8201 44.6022 64.6336 45.7904 63.1656 45.7904H36.9848C35.5193 45.7904 34.3303 44.6022 34.3303 43.1376V16.9762C34.3303 15.5116 35.5168 14.3234 36.9848 14.3234H63.1656C64.6312 14.3234 65.8201 15.5116 65.8201 16.9762V43.1376Z" fill="#203A72"/>
<path d="M60.6446 19.4859C58.5919 17.4393 54.4816 18.2007 50.0728 21.0887C45.6616 18.2031 41.5513 17.4418 39.501 19.4859C38.0743 20.9117 37.9602 23.3753 39.1783 26.4281C39.6465 27.6066 40.3308 28.8287 41.1291 30.0533C40.3308 31.2778 39.6465 32.5023 39.1783 33.6784C37.9602 36.7288 38.0743 39.1948 39.501 40.6206C40.2726 41.3893 41.3499 41.7797 42.6601 41.7797C43.769 41.7797 45.0453 41.4984 46.4453 40.9431C47.6246 40.4727 48.8475 39.7889 50.0728 38.9912C51.2981 39.7889 52.521 40.4727 53.7003 40.9431C55.1003 41.5008 56.3766 41.7797 57.4879 41.7797C58.7981 41.7797 59.8754 41.3893 60.647 40.6206C62.6998 38.5692 61.9379 34.4616 59.0481 30.0533C61.9379 25.6449 62.6998 21.5397 60.647 19.4859H60.6446ZM57.4782 20.2667C58.2595 20.2667 58.8734 20.4631 59.2689 20.8608C60.3971 21.9883 59.8755 24.9102 57.8033 28.3389C56.9735 27.2623 56.0684 26.1832 55.0057 25.1212C53.9405 24.0567 52.8583 23.1498 51.7786 22.3205C54.0109 20.9699 56.032 20.2667 57.4806 20.2667H57.4782ZM56.6629 30.0508C55.8112 31.2196 54.8213 32.4175 53.6299 33.608C52.4822 34.7574 51.2787 35.7661 50.0704 36.6439C48.8644 35.7661 47.6609 34.7574 46.5108 33.608C45.3607 32.4587 44.3538 31.2584 43.4754 30.0508C44.3538 28.8433 45.3631 27.643 46.5108 26.4936C47.7022 25.303 48.9008 24.304 50.0704 23.4529C51.2399 24.304 52.4385 25.303 53.6299 26.4936C54.8213 27.6842 55.8112 28.8821 56.6629 30.0508ZM40.9811 25.7056C40.0809 23.4529 40.042 21.69 40.8719 20.8608C41.2674 20.4631 41.8837 20.2667 42.6626 20.2667C44.1087 20.2667 46.1299 20.9674 48.3646 22.3205C47.2849 23.1498 46.2027 24.0567 45.1375 25.1212C44.099 26.159 43.1867 27.2453 42.3471 28.3438C41.8061 27.449 41.3232 26.5639 40.9835 25.708L40.9811 25.7056ZM45.7222 39.1366C43.4705 40.0314 41.7017 40.0702 40.8719 39.2433C40.042 38.414 40.0809 36.6488 40.9811 34.3985C41.3232 33.5426 41.8036 32.6551 42.3447 31.7628C43.1843 32.8588 44.099 33.9451 45.1351 34.9853C46.1736 36.0232 47.2606 36.9349 48.3573 37.7739C47.462 38.3146 46.5764 38.7972 45.7198 39.1391L45.7222 39.1366ZM59.2664 39.2433C58.439 40.0726 56.6702 40.0338 54.4161 39.1366C53.562 38.7947 52.6739 38.3122 51.781 37.7715C52.8777 36.9325 53.9647 36.0183 55.0032 34.9829C56.066 33.9208 56.971 32.8418 57.8009 31.7652C59.8755 35.1939 60.3971 38.1158 59.2689 39.2433H59.2664Z" fill="#14A0DE"/>
<path d="M47.9885 27.9727C46.8384 29.1221 46.8384 30.9844 47.9885 32.1337C49.1386 33.2831 51.0021 33.2831 52.1522 32.1337C53.3023 30.9844 53.3023 29.1221 52.1522 27.9727C51.0021 26.8234 49.1386 26.8234 47.9885 27.9727Z" fill="#14A0DE"/>
</svg>
