<svg width="79" height="60" viewBox="0 0 79 60" fill="none" xmlns="http://www.w3.org/2000/svg">
<path d="M0 0.584158C0 0.261536 0.261537 0 0.584158 0C32.8463 0 59 26.1537 59 58.4158C59 58.7385 58.7385 59 58.4158 59H5C2.23858 59 0 56.7614 0 54V0.584158Z" fill="#C4E1F0"/>
<path d="M73.5469 0H29.4464C26.4453 0 24 2.4477 24 5.44955V39.7555C24 42.7596 26.4453 45.2073 29.4464 45.2073H34.346L37.1678 42.3826H29.4464C27.9985 42.3826 26.8219 41.2048 26.8219 39.7555V13.7529H76.1782V39.7555C76.1782 41.2048 74.9925 42.3826 73.5446 42.3826H65.2494L68.0713 45.2073H73.5446C76.5547 45.2073 79 42.7596 79 39.7555V5.44955C79 2.4477 76.5547 0 73.5446 0H73.5469ZM31.0759 8.58601H30.6433C29.6952 8.58601 28.9309 7.82097 28.9309 6.87195C28.9309 5.92293 29.6952 5.15789 30.6433 5.15789H31.0759C32.024 5.15789 32.7883 5.92293 32.7883 6.87195C32.7883 7.82097 32.024 8.58601 31.0759 8.58601ZM36.9571 8.58601H36.5246C35.5765 8.58601 34.8122 7.82097 34.8122 6.87195C34.8122 5.92293 35.5765 5.15789 36.5246 5.15789H36.9571C37.894 5.15789 38.6695 5.92293 38.6695 6.87195C38.6695 7.82097 37.894 8.58601 36.9571 8.58601ZM42.8272 8.58601H42.4058C41.4577 8.58601 40.6934 7.82097 40.6934 6.87195C40.6934 5.92293 41.4577 5.15789 42.4058 5.15789H42.8272C43.7753 5.15789 44.5396 5.92293 44.5396 6.87195C44.5396 7.82097 43.7753 8.58601 42.8272 8.58601ZM72.2222 8.40204H61.8919C61.0582 8.40204 60.3656 7.72001 60.3656 6.87419C60.3656 6.02838 61.0582 5.34635 61.8919 5.34635H72.2222C73.0582 5.34635 73.7486 6.02838 73.7486 6.87419C73.7486 7.72001 73.056 8.40204 72.2222 8.40204Z" fill="#203A72"/>
<path d="M60.3237 41.4398L53.7878 47.9822L60.1827 54.3834L66.7186 47.841L60.3237 41.4398Z" fill="#14A0DE"/>
<path d="M69.5595 51.9087C69.3331 51.2155 69.0014 50.5626 68.598 49.9568L62.2954 56.2657C62.9005 56.6718 63.5528 57.0038 64.2453 57.2304L70.1692 59.1598C70.9872 59.4335 71.7583 58.6506 71.496 57.8317L69.5595 51.911V51.9087Z" fill="#14A0DE"/>
<path d="M35.5608 19.723L32.089 23.1959C31.2418 24.044 31.2418 25.4081 32.089 26.2561L33.8507 28.0196L40.3774 21.4864L38.6158 19.723C37.7775 18.8749 36.4058 18.8749 35.5586 19.723H35.5608Z" fill="#14A0DE"/>
<path d="M42.3646 23.4725L35.8382 30.0054L42.6721 36.846L49.1985 30.3131L42.3646 23.4725Z" fill="#14A0DE"/>
<path d="M50.0151 41.5122C50.5665 40.9603 51.4585 40.9603 52.0099 41.5122L54.1347 43.6391L55.9838 41.7881L53.8612 39.6613C53.3099 39.1094 53.3099 38.2164 53.8612 37.6645C54.4126 37.1126 55.3047 37.1126 55.856 37.6645L57.9786 39.7914L59.8299 37.9382L56.1205 34.2252C55.5692 33.6733 55.5692 32.7803 56.1205 32.2284C56.6719 31.6765 57.564 31.6765 58.1153 32.2284L61.8247 35.9415L63.6738 34.0906L61.549 31.9637C60.9977 31.4118 60.9977 30.5189 61.549 29.967C62.1004 29.415 62.9924 29.415 63.5438 29.967L65.6686 32.0938L67.5177 30.2429L65.3929 28.116C64.8415 27.5641 64.8415 26.6712 65.3929 26.1193C65.9443 25.5674 66.8363 25.5674 67.3877 26.1193L69.5125 28.2462L71.2966 26.4603C71.8838 25.8725 71.8838 24.919 71.2966 24.3312L66.3051 19.3348C65.7179 18.747 64.7653 18.747 64.1781 19.3348L31.7012 51.8437C31.114 52.4315 31.114 53.385 31.7012 53.9705L36.6927 58.9669C37.2799 59.5547 38.2325 59.5547 38.8197 58.9669L40.6038 57.181L38.4812 55.0542C37.9299 54.5023 37.9299 53.6093 38.4812 53.0574C39.0326 52.5055 39.9247 52.5055 40.476 53.0574L42.5986 55.1843L44.4499 53.3334L42.3251 51.2065C41.7738 50.6546 41.7738 49.7617 42.3251 49.2098C42.8765 48.6579 43.7686 48.6579 44.3199 49.2098L46.4447 51.3366L48.296 49.4835L44.5866 45.7704C44.0353 45.2185 44.0353 44.3256 44.5866 43.7737C45.138 43.2218 46.03 43.2218 46.5814 43.7737L50.2908 47.4867L52.1399 45.6358L50.0151 43.5089C49.4638 42.957 49.4638 42.0641 50.0151 41.5122Z" fill="#14A0DE"/>
</svg>
