<svg width="83" height="67" viewBox="0 0 83 67" fill="none" xmlns="http://www.w3.org/2000/svg">
<path d="M0 7.58416C0 7.26154 0.261537 7 0.584158 7C32.8463 7 59 33.1537 59 65.4158C59 65.7385 58.7385 66 58.4158 66H5C2.23858 66 0 63.7614 0 61V7.58416Z" fill="#C4E1F0"/>
<path d="M41.3444 50.4211C31.937 49.4441 24.5569 41.4744 24.5569 31.8292C24.5569 21.5228 32.9693 13.1329 43.2821 13.1329C46.3541 13.1329 49.2669 13.8837 51.834 15.2086L55.1844 11.8602C51.6946 9.78446 47.6276 8.5813 43.2821 8.5813C30.4197 8.5813 20 19.0096 20 31.8292C20 44.6489 29.86 54.5228 42.2349 55.0622C41.6579 53.9808 41.3444 52.7429 41.3444 51.4353V50.4236V50.4211Z" fill="#203A72"/>
<path d="M65.0446 34.3226L66.4749 33.3282C66.5097 32.8236 66.5271 32.3339 66.5271 31.8267C66.5271 27.5013 65.3406 23.422 63.2462 19.9492L59.8783 23.2977C61.2041 25.8606 61.9553 28.7567 61.9553 31.8267C61.9553 33.2934 61.7812 34.7054 61.4678 36.0652C62.7413 35.6823 63.9452 35.1056 65.0446 34.3201V34.3226Z" fill="#203A72"/>
<path d="M43.2822 21.9056C43.8393 21.9056 44.4165 21.9578 44.9587 22.0797L48.6401 18.4006C46.9636 17.7194 45.1676 17.354 43.2822 17.354C35.2727 17.354 28.7607 23.8595 28.7607 31.8293C28.7607 39.1725 34.2404 45.2605 41.3445 46.2001V44.5246C41.3445 43.5129 41.536 42.5533 41.8868 41.6659C37.0537 40.9847 33.3176 36.8333 33.3176 31.8268C33.3176 26.3504 37.8024 21.9032 43.2822 21.9032V21.9056Z" fill="#203A72"/>
<path d="M56.963 36.607C57.4878 35.1081 57.7664 33.5047 57.7664 31.8267C57.7664 29.9449 57.4008 28.1302 56.7192 26.4746L53.0379 30.1363C53.1598 30.6956 53.1946 31.2699 53.1946 31.8267C53.1946 33.5544 52.7592 35.1777 51.9732 36.607H56.9655H56.963Z" fill="#203A72"/>
<path d="M74.9967 7.3036C74.7306 6.66224 74.1088 6.2471 73.4148 6.2471H68.8752V1.71038C68.8752 1.01931 68.4573 0.395356 67.8181 0.129368C67.1788 -0.134135 66.4425 0.0125291 65.9525 0.499761L61.2637 5.18812C60.9428 5.5088 60.7613 5.94382 60.7613 6.39625V11.1269L45.3592 26.5194C44.71 26.2634 44.006 26.1117 43.2672 26.1117C40.1082 26.1117 37.5388 28.6796 37.5388 31.8342C37.5388 34.9888 40.1082 37.5542 43.2672 37.5542C46.4262 37.5542 48.9933 34.9888 48.9933 31.8342C48.9933 31.0959 48.8416 30.3924 48.5854 29.7461L63.9899 14.3511H68.726C69.1812 14.3511 69.6166 14.1696 69.9349 13.8489L74.6236 9.16303C75.1136 8.67331 75.2579 7.93749 74.9967 7.29862V7.3036Z" fill="#203A72"/>
<path d="M57.8361 40.6193H49.2669C47.1028 40.6193 45.3568 42.3644 45.3568 44.5271V51.4329C45.3568 53.5782 47.1029 55.3407 49.2495 55.3407H51.2743L53.003 65.1425C53.1075 65.7714 53.6498 66.2238 54.2766 66.2238H58.2042C59.0251 66.2238 59.6345 65.4905 59.4952 64.7074L57.8361 55.3407C61.2389 55.3407 64.5546 56.3872 67.3479 58.3411L69.6862 59.9818V35.9832L67.3479 37.6214C64.557 39.5753 61.2389 40.6218 57.8361 40.6218V40.6193Z" fill="#14A0DE"/>
<path d="M77.9419 42.956V33.9198C77.9419 32.3513 76.1609 31.4265 74.8699 32.3314L73.3352 33.4127V62.5223L74.8699 63.6037C76.1609 64.511 77.9419 63.5863 77.9419 62.0152V52.9989C80.5587 52.8075 82.6531 50.6423 82.6531 47.975C82.6531 45.3076 80.5587 43.125 77.9419 42.951V42.956Z" fill="#14A0DE"/>
</svg>
