<svg width="89" height="60" viewBox="0 0 89 60" fill="none" xmlns="http://www.w3.org/2000/svg">
<path d="M0 0.584158C0 0.261536 0.261537 0 0.584158 0C32.8463 0 59 26.1537 59 58.4158C59 58.7385 58.7385 59 58.4158 59H5C2.23858 59 0 56.7614 0 54V0.584158Z" fill="#C4E1F0"/>
<path d="M71.1284 24.3909C70.3598 24.3909 69.6966 24.2833 69.1368 24.0661C68.5771 23.8489 68.1168 23.5485 67.7538 23.1648C67.3908 22.7791 67.1211 22.3203 66.9487 21.7885C66.7743 21.2566 66.6871 20.6679 66.6871 20.0244V13.2077H69.1511V19.8194C69.1511 20.2619 69.1997 20.6395 69.3011 20.9501C69.4005 21.2607 69.5384 21.5144 69.7129 21.7093C69.8873 21.9042 70.0982 22.0443 70.3456 22.1275C70.593 22.2128 70.8647 22.2534 71.1588 22.2534C71.7591 22.2534 72.2458 22.0686 72.621 21.6992C72.9941 21.3297 73.1807 20.7024 73.1807 19.8174V13.2057H75.6447V20.0224C75.6447 20.6659 75.5554 21.2566 75.377 21.7946C75.1985 22.3325 74.9248 22.7933 74.5557 23.179C74.1866 23.5647 73.7181 23.8611 73.1502 24.0722C72.5824 24.2833 71.9071 24.3889 71.1284 24.3889V24.3909Z" fill="#14A0DE"/>
<path d="M78.0155 13.2097H80.4795V24.1696H78.0155V13.2097Z" fill="#14A0DE"/>
<path d="M84.0265 7H25.6587C24.1905 7 23 8.1916 23 9.66132V45.312C23 46.7858 24.1945 47.9815 25.6668 47.9815H49.5505L48.0052 55.3605H44.4785C43.4361 55.3605 42.5905 56.207 42.5905 57.2504C42.5905 58.2938 43.4361 59.1403 44.4785 59.1403H65.2107C66.2531 59.1403 67.0987 58.2938 67.0987 57.2504C67.0987 56.207 66.2531 55.3605 65.2107 55.3605H61.684L60.1387 47.9815H70.8668L69.9948 40.505H26.5267V10.522H83.1605V34.9144L86.6871 37.3565V9.66132C86.6871 8.1916 85.4967 7 84.0284 7H84.0265ZM52.7203 44.297C52.7203 43.3754 53.4665 42.6284 54.3872 42.6284H55.2979C56.2186 42.6284 56.9649 43.3754 56.9649 44.297C56.9649 45.2186 56.2186 45.9657 55.2979 45.9657H54.3872C53.4665 45.9657 52.7223 45.2186 52.7223 44.2991L52.7203 44.297Z" fill="#203A72"/>
<path d="M87.9831 41.5261L73.4343 31.4309C72.6697 30.9011 71.6374 31.5203 71.7469 32.4459L73.8094 50.046C73.9128 50.9371 74.9937 51.3208 75.6346 50.6956L79.2992 47.1268L82.3656 52.2404C82.6718 52.7519 83.3369 52.9184 83.8479 52.6098L85.5251 51.603C86.0362 51.2964 86.2025 50.6306 85.8943 50.119L82.8258 45.0055L87.6951 43.4444C88.5489 43.1704 88.7172 42.0376 87.9811 41.5261H87.9831Z" fill="#203A72"/>
<path d="M44.513 13.2097H30.2237C29.6614 13.2097 29.2057 13.666 29.2057 14.2288V20.5968C29.2057 21.1597 29.6614 21.6159 30.2237 21.6159H44.513C45.0752 21.6159 45.531 21.1597 45.531 20.5968V14.2288C45.531 13.666 45.0752 13.2097 44.513 13.2097Z" fill="#14A0DE"/>
<path d="M48.6906 37.8193H62.9799C63.5421 37.8193 63.9979 37.3631 63.9979 36.8003V30.4322C63.9979 29.8694 63.5421 29.4131 62.9799 29.4131H48.6906C48.1284 29.4131 47.6726 29.8694 47.6726 30.4322V36.8003C47.6726 37.3631 48.1284 37.8193 48.6906 37.8193Z" fill="#14A0DE"/>
<path d="M48.6906 25.3613H62.9799C63.5416 25.3613 63.9979 25.818 63.9979 26.3803C63.9979 26.9426 63.5416 27.3994 62.9799 27.3994H48.6906C48.1289 27.3994 47.6726 26.9426 47.6726 26.3803C47.6726 25.818 48.1289 25.3613 48.6906 25.3613Z" fill="#203A72"/>
<path d="M48.6906 21.3094H62.9799C63.5416 21.3094 63.9979 21.7661 63.9979 22.3284C63.9979 22.8908 63.5416 23.3475 62.9799 23.3475H48.6906C48.1289 23.3475 47.6726 22.8908 47.6726 22.3284C47.6726 21.7661 48.1289 21.3094 48.6906 21.3094Z" fill="#203A72"/>
<path d="M48.6906 17.2596H62.9799C63.5416 17.2596 63.9979 17.7163 63.9979 18.2786C63.9979 18.8409 63.5416 19.2977 62.9799 19.2977H48.6906C48.1289 19.2977 47.6726 18.8409 47.6726 18.2786C47.6726 17.7163 48.1289 17.2596 48.6906 17.2596Z" fill="#203A72"/>
<path d="M48.6906 13.2097H62.9799C63.5416 13.2097 63.9979 13.6665 63.9979 14.2288C63.9979 14.7911 63.5416 15.2478 62.9799 15.2478H48.6906C48.1289 15.2478 47.6726 14.7911 47.6726 14.2288C47.6726 13.6665 48.1289 13.2097 48.6906 13.2097Z" fill="#203A72"/>
<path d="M43.8498 32.1678C44.1946 32.1171 44.4501 31.8228 44.4501 31.4736V29.9734C44.4501 29.6263 44.1946 29.3299 43.8498 29.2812L42.56 29.0924C42.3978 28.7006 42.3552 28.5971 42.1929 28.2033L42.9737 27.1578C43.1826 26.8777 43.1542 26.4879 42.9068 26.2423L41.8482 25.1806C41.6028 24.935 41.2114 24.9066 40.9335 25.1136L39.8871 25.8952C39.4957 25.7328 39.3923 25.6902 38.9988 25.5278L38.8123 24.2347C38.7616 23.8896 38.4675 23.6358 38.1187 23.6358H36.62C36.2732 23.6358 35.9771 23.8916 35.9264 24.2347L35.7399 25.5278C35.3485 25.6902 35.243 25.7328 34.8516 25.8952L33.8052 25.1136C33.5273 24.9066 33.138 24.935 32.8905 25.1806L31.8299 26.2423C31.5845 26.4879 31.5561 26.8777 31.763 27.1578L32.5438 28.2053C32.3815 28.5971 32.3389 28.7027 32.1767 29.0945L30.8848 29.2832C30.5401 29.332 30.2845 29.6283 30.2845 29.9755V31.4756C30.2845 31.8248 30.5401 32.1191 30.8848 32.1699L32.1747 32.3566C32.3369 32.7484 32.3815 32.854 32.5438 33.2458L31.763 34.2912C31.5541 34.5714 31.5825 34.9611 31.8299 35.2068L32.8905 36.2664C33.1359 36.512 33.5253 36.5425 33.8052 36.3334L34.8516 35.5519C35.243 35.7143 35.3485 35.7569 35.7399 35.9193L35.9264 37.2124C35.9771 37.5575 36.2712 37.8133 36.62 37.8133H38.1187C38.4655 37.8133 38.7616 37.5575 38.8123 37.2124L38.9988 35.9193C39.3902 35.7569 39.4957 35.7143 39.8871 35.5519L40.9335 36.3334C41.2114 36.5425 41.6008 36.512 41.8482 36.2664L42.9068 35.2068C43.1522 34.9611 43.1806 34.5714 42.9737 34.2912L42.1909 33.2417C42.3531 32.852 42.3957 32.7464 42.558 32.3566L43.8519 32.1699L43.8498 32.1678ZM37.3684 33.3534C35.9163 33.3534 34.74 32.176 34.74 30.7245C34.74 29.2731 35.9163 28.0937 37.3684 28.0937C38.8204 28.0937 39.9946 29.2711 39.9946 30.7245C39.9946 32.178 38.8184 33.3534 37.3684 33.3534Z" fill="#203A72"/>
</svg>
